{"title":"Final Destination 2, 2003 DVDrip English Klam","uid":6640682,"size":1424762518,"categoryP":"video","categoryS":"movies","magnet":"?xt=urn:btih:2d92d6d6428a8c6bb059615879c39a5204c67e72&amp;dn=Final+Destination+2%2C+2003+DVDrip+English+Klam&amp;tr=udp%3A%2F%2Ftracker.openbittorrent.com%3A80&amp;tr=udp%3A%2F%2Fopen.demonii.com%3A1337&amp;tr=udp%3A%2F%2Ftracker.coppersurfer.tk%3A6969&amp;tr=udp%3A%2F%2Fexodus.desync.com%3A6969","seeders":0,"leechers":1,"uploader":"Klambake","files":-1,"time":1314733923,"description":"With: A.J. Cook, Ali Larter and Tony Todd\n\nOp weg naar Daytona Beach krijgt Kimberly plots een visioen van een groot ongeluk dat zal gebeuren op de autosnelweg waarin zij met haar vrienden zal sterven. Ze stopt onmiddellijk de wagen. Enkele ogenblikken later verliest een vrachtwagen zijn lading waardoor er een enorme kettingbotsing ontstaat. Dankzij deze blik op de toekomst kon Kimberly het leven van zichzelf en dat van haar vrienden redden en zo dus 'de dood' te snel af zijn. Althans dat denkt ze ...\n\nWhen Kimberly has a violent premonition of a highway pileup she blocks the freeway, keeping a few others meant to die, safe...Or are they? The survivors mysteriously start dying and it's up to Kimberly to stop it before she's next.\n\n------------------ Dutch Friends ------------------\nYou can find my Friends at: http://www.Film-Test.nl \n------ They got my dutchs subs ---- and more ------\n\nGeneral:\n\nComplete name                    : Final Destination 2\\Final Destination 2.avi\nFormat                           : AVI\nFormat/Info                      : Audio Video Interleave\nFile size                        : 1.33 GiB\nDuration                         : 1h 26mn\nOverall bit rate                 : 2 196 Kbps\n\nVideo:\n\nFormat                           : MPEG-4 Visual\nFormat profile                   : Simple@L3\nFormat settings, BVOP            : No\nFormat settings, QPel            : No\nFormat settings, GMC             : No warppoints\nFormat settings, Matrix          : Default (H.263)\nCodec ID                         : XVID\nCodec ID/Hint                    : XviD\nDuration                         : 1h 26mn\nBit rate                         : 1 737 Kbps\nWidth                            : 652 pixels\nHeight                           : 352 pixels\nDisplay aspect ratio             : 1.852\nFrame rate                       : 25.000 fps\nColor space                      : YUV\nChroma subsampling               : 4:2:0\nBit depth                        : 8 bits\nScan type                        : Progressive\nBits/(Pixel*Frame)               : 0.303\nStream size                      : 1.05 GiB (79%)\nWriting library                  : XviD 1.1.2 (UTC 2006-11-01)\n\nAudio:\n\nFormat                           : AC-3\nFormat/Info                      : Audio Coding 3\nMode extension                   : CM (complete main)\nCodec ID                         : 2000\nDuration                         : 1h 26mn\nBit rate mode                    : Constant\nBit rate                         : 448 Kbps\nChannel(s)                       : 6 channels\nChannel positions                : Front: L C R, Side: L R, LFE\nSampling rate                    : 48.0 KHz\nBit depth                        : 16 bits\nStream size                      : 277 MiB (20%)\nAlignment                        : Aligned on interleaves\nInterleave, duration             : 32 ms (0.80 video frame)\nInterleave, preload duration     : 32 ms\n\n\n","torrent":{"xt":"urn:btih:2d92d6d6428a8c6bb059615879c39a5204c67e72","amp;dn":"Final+Destination+2%2C+2003+DVDrip+English+Klam","amp;tr":["udp%3A%2F%2Ftracker.openbittorrent.com%3A80","udp%3A%2F%2Fopen.demonii.com%3A1337","udp%3A%2F%2Ftracker.coppersurfer.tk%3A6969","udp%3A%2F%2Fexodus.desync.com%3A6969"],"infoHash":"2d92d6d6428a8c6bb059615879c39a5204c67e72","infoHashBuffer":{"type":"Buffer","data":[45,146,214,214,66,138,140,107,176,89,97,88,121,195,154,82,4,198,126,114]},"announce":[],"urlList":[]}}